<?xml version="1.0" encoding="UTF-8"?>
<svg xmlns="http://www.w3.org/2000/svg" xmlns:xlink="http://www.w3.org/1999/xlink" width="96pt" height="96pt" viewBox="0 0 96 96" version="1.1">
<g id="surface14078000">
<path style=" stroke:none;fill-rule:nonzero;fill:rgb(100%,100%,100%);fill-opacity:1;" d="M 63.902344 18 C 63.429688 18 63 18.378906 63 18.902344 L 63 35.390625 L 59.261719 33.210938 C 59.027344 33.074219 58.765625 33.003906 58.5 33.003906 C 58.234375 33.003906 57.972656 33.074219 57.738281 33.210938 L 48.757812 38.449219 C 48.289062 38.71875 48 39.21875 48 39.757812 L 48 50.246094 C 48 50.785156 48.289062 51.28125 48.757812 51.550781 L 57.738281 56.789062 C 57.972656 56.925781 58.234375 56.996094 58.5 56.996094 C 58.765625 56.996094 59.027344 56.925781 59.261719 56.789062 L 68.242188 51.550781 C 68.710938 51.28125 69 50.78125 69 50.246094 L 69 21.691406 C 69 21.15625 68.714844 20.667969 68.257812 20.398438 L 64.347656 18.125 C 64.199219 18.039062 64.050781 18 63.902344 18 Z M 34.5 33.007812 C 34.238281 33.007812 33.972656 33.074219 33.738281 33.210938 L 24.757812 38.449219 C 24.289062 38.71875 24 39.21875 24 39.757812 L 24 50.246094 C 24 50.785156 24.289062 51.28125 24.757812 51.550781 L 33.738281 56.789062 C 34.210938 57.0625 34.789062 57.0625 35.261719 56.789062 L 44.246094 51.550781 C 44.710938 51.28125 45 50.78125 45 50.246094 L 45 39.757812 C 45 39.214844 44.710938 38.71875 44.246094 38.449219 L 35.261719 33.210938 C 35.027344 33.074219 34.761719 33.007812 34.5 33.007812 Z M 82.5 33.007812 C 82.234375 33.007812 81.972656 33.074219 81.738281 33.210938 L 72.757812 38.449219 C 72.289062 38.71875 72 39.21875 72 39.757812 L 72 50.246094 C 72 50.785156 72.289062 51.28125 72.757812 51.550781 L 81.46875 56.820312 C 81.9375 57.101562 82.523438 57.105469 83 56.832031 L 87.28125 54.339844 C 87.726562 54.085938 87.726562 53.441406 87.28125 53.179688 L 78 47.714844 L 78 42.328125 L 82.5 39.710938 L 87 42.328125 L 87 46.078125 C 87 46.578125 87.421875 46.65625 87.703125 46.488281 C 88.835938 45.824219 92.257812 43.839844 92.257812 43.839844 C 92.714844 43.574219 93 43.078125 93 42.546875 L 93 39.757812 C 93 39.214844 92.710938 38.71875 92.242188 38.449219 L 83.261719 33.210938 C 83.023438 33.074219 82.765625 33.007812 82.5 33.007812 Z M 10.5 33.011719 C 10.234375 33.011719 9.972656 33.078125 9.738281 33.21875 L 0.753906 38.449219 C 0.289062 38.722656 0 39.222656 0 39.761719 L 0 53.148438 C 0 53.804688 0.707031 54.210938 1.269531 53.882812 L 5.253906 51.5625 C 5.714844 51.292969 6 50.800781 6 50.265625 L 6 42.339844 L 10.5 39.714844 L 15 42.339844 L 15 50.269531 C 15 50.800781 15.285156 51.292969 15.742188 51.5625 L 19.726562 53.882812 C 20.292969 54.210938 21 53.804688 21 53.152344 L 21 39.761719 C 21 39.222656 20.710938 38.722656 20.242188 38.449219 L 11.261719 33.21875 C 11.027344 33.078125 10.765625 33.011719 10.5 33.011719 Z M 58.5 39.707031 L 63 42.335938 L 63 47.664062 L 58.5 50.292969 L 54 47.667969 L 54 42.335938 Z M 82.5 42.011719 L 79.929688 43.511719 L 79.929688 46.503906 L 82.5 48 L 85.070312 46.503906 L 85.070312 43.511719 Z M 46.21875 53.992188 C 45.910156 53.992188 45.597656 54.070312 45.328125 54.222656 L 36.890625 59.097656 C 36.335938 59.402344 36 60.003906 36 60.632812 L 36 70.371094 C 36 71 36.351562 71.589844 36.890625 71.90625 L 39.109375 73.171875 C 40.175781 73.695312 40.566406 73.699219 41.050781 73.699219 C 42.640625 73.699219 43.546875 72.75 43.546875 71.066406 L 43.546875 61.449219 C 43.546875 61.300781 43.433594 61.195312 43.300781 61.195312 L 42.234375 61.195312 C 42.085938 61.195312 41.984375 61.316406 41.984375 61.449219 L 41.984375 71.066406 C 41.984375 71.796875 41.210938 72.546875 39.953125 71.917969 L 37.644531 70.589844 C 37.570312 70.542969 37.515625 70.453125 37.515625 70.367188 L 37.515625 60.625 C 37.515625 60.539062 37.558594 60.4375 37.644531 60.394531 L 46.085938 55.53125 C 46.175781 55.484375 46.277344 55.484375 46.347656 55.53125 L 54.789062 60.394531 C 54.878906 60.4375 54.917969 60.523438 54.917969 60.625 L 54.917969 70.367188 C 54.917969 70.46875 54.863281 70.554688 54.789062 70.601562 L 46.347656 75.480469 C 46.273438 75.527344 46.15625 75.527344 46.085938 75.480469 L 43.929688 74.199219 C 43.871094 74.167969 43.78125 74.148438 43.722656 74.179688 C 43.125 74.53125 43.007812 74.578125 42.453125 74.765625 C 42.304688 74.8125 42.105469 74.902344 42.527344 75.136719 L 45.328125 76.796875 C 45.605469 76.945312 45.914062 77.03125 46.21875 77.03125 C 46.539062 77.03125 46.851562 76.945312 47.097656 76.785156 L 55.535156 71.90625 C 56.089844 71.601562 56.425781 71 56.425781 70.371094 L 56.425781 60.632812 C 56.425781 60.003906 56.074219 59.417969 55.535156 59.097656 L 47.097656 54.222656 C 46.835938 54.070312 46.527344 53.996094 46.21875 53.996094 Z M 59.378906 58.488281 C 58.519531 58.488281 57.761719 59.183594 57.761719 60.105469 C 57.761719 60.996094 58.488281 61.730469 59.378906 61.730469 C 60.269531 61.730469 60.996094 60.996094 60.996094 60.105469 C 60.996094 59.183594 60.253906 58.472656 59.378906 58.488281 Z M 59.359375 58.746094 C 60.125 58.746094 60.738281 59.347656 60.738281 60.105469 C 60.738281 60.847656 60.121094 61.464844 59.359375 61.484375 C 58.613281 61.484375 58.007812 60.863281 58.007812 60.105469 C 58.007812 59.347656 58.617188 58.746094 59.359375 58.746094 Z M 58.769531 59.183594 L 58.769531 61.007812 L 59.113281 61.007812 L 59.113281 60.28125 L 59.4375 60.28125 C 59.570312 60.28125 59.601562 60.335938 59.628906 60.4375 C 59.628906 60.453125 59.6875 60.925781 59.699219 61.011719 L 60.074219 61.011719 C 60.035156 60.925781 60.003906 60.675781 59.988281 60.527344 C 59.945312 60.292969 59.933594 60.132812 59.683594 60.117188 C 59.816406 60.070312 60.035156 60.003906 60.035156 59.664062 C 60.035156 59.183594 59.617188 59.183594 59.394531 59.183594 Z M 59.113281 59.476562 L 59.40625 59.476562 C 59.5 59.476562 59.671875 59.476562 59.671875 59.722656 C 59.671875 59.828125 59.628906 59.992188 59.390625 59.988281 L 59.113281 59.988281 Z M 48.480469 60.96875 C 46.070312 60.96875 44.644531 61.992188 44.644531 63.683594 C 44.644531 65.539062 46.074219 66.035156 48.382812 66.269531 C 51.140625 66.546875 51.359375 66.941406 51.359375 67.484375 C 51.359375 68.429688 50.597656 68.824219 48.816406 68.824219 C 46.578125 68.824219 46.085938 68.269531 45.925781 67.160156 C 45.910156 67.042969 45.804688 66.953125 45.675781 66.953125 L 44.578125 66.953125 C 44.445312 66.953125 44.332031 67.058594 44.332031 67.207031 C 44.332031 68.621094 45.105469 70.316406 48.796875 70.316406 C 51.507812 70.316406 53.039062 69.265625 53.039062 67.421875 C 53.039062 65.601562 51.8125 65.113281 49.214844 64.761719 C 46.585938 64.414062 46.324219 64.234375 46.324219 63.621094 C 46.324219 63.109375 46.539062 62.441406 48.480469 62.441406 C 50.21875 62.441406 50.863281 62.824219 51.128906 63.988281 C 51.160156 64.105469 51.242188 64.175781 51.355469 64.175781 L 52.453125 64.175781 C 52.523438 64.175781 52.585938 64.148438 52.628906 64.105469 C 52.675781 64.050781 52.703125 63.992188 52.6875 63.917969 C 52.511719 61.902344 51.183594 60.964844 48.480469 60.964844 Z M 48.480469 60.96875 "/>
</g>
</svg>
