<?xml version="1.0" encoding="UTF-8"?>
<svg xmlns="http://www.w3.org/2000/svg" xmlns:xlink="http://www.w3.org/1999/xlink" width="256pt" height="256pt" viewBox="0 0 256 256" version="1.1">
<g id="surface14078011">
<path style=" stroke:none;fill-rule:nonzero;fill:rgb(100%,100%,100%);fill-opacity:1;" d="M 170.40625 48 C 169.148438 48 168 49.007812 168 50.40625 L 168 94.375 L 158.03125 88.5625 C 157.40625 88.195312 156.703125 88.015625 156 88.015625 C 155.296875 88.015625 154.59375 88.195312 153.96875 88.5625 L 130.015625 102.53125 C 128.769531 103.25 128 104.582031 128 106.015625 L 128 133.984375 C 128 135.425781 128.769531 136.75 130.015625 137.46875 L 153.96875 151.4375 C 154.59375 151.804688 155.296875 151.984375 156 151.984375 C 156.703125 151.984375 157.40625 151.804688 158.03125 151.4375 L 181.984375 137.46875 C 183.230469 136.75 184 135.417969 184 133.984375 L 184 57.84375 C 184 56.417969 183.238281 55.109375 182.015625 54.390625 L 171.59375 48.328125 C 171.203125 48.105469 170.804688 48 170.40625 48 Z M 92 88.015625 C 91.296875 88.015625 90.597656 88.199219 89.96875 88.5625 L 66.015625 102.53125 C 64.769531 103.25 64 104.582031 64 106.015625 L 64 133.984375 C 64 135.425781 64.769531 136.75 66.015625 137.46875 L 89.96875 151.4375 C 91.226562 152.164062 92.773438 152.164062 94.03125 151.4375 L 117.984375 137.46875 C 119.230469 136.75 120 135.417969 120 133.984375 L 120 106.015625 C 120 104.574219 119.230469 103.25 117.984375 102.53125 L 94.03125 88.5625 C 93.402344 88.199219 92.703125 88.015625 92 88.015625 Z M 220 88.015625 C 219.296875 88.015625 218.59375 88.195312 217.96875 88.5625 L 194.015625 102.53125 C 192.769531 103.25 192 104.582031 192 106.015625 L 192 133.984375 C 192 135.425781 192.769531 136.75 194.015625 137.46875 L 217.25 151.515625 C 218.496094 152.277344 220.0625 152.28125 221.328125 151.546875 L 232.75 144.90625 C 233.933594 144.226562 233.941406 142.507812 232.75 141.8125 L 208 127.234375 L 208 112.875 L 220 105.890625 L 232 112.875 L 232 122.875 C 232 124.210938 233.121094 124.417969 233.875 123.96875 C 236.898438 122.191406 246.015625 116.90625 246.015625 116.90625 C 247.238281 116.195312 248 114.878906 248 113.453125 L 248 106.015625 C 248 104.574219 247.230469 103.25 245.984375 102.53125 L 222.03125 88.5625 C 221.398438 88.195312 220.703125 88.015625 220 88.015625 Z M 28 88.03125 C 27.296875 88.03125 26.59375 88.210938 25.96875 88.578125 L 2.015625 102.53125 C 0.769531 103.257812 0 104.589844 0 106.03125 L 0 141.734375 C 0 143.476562 1.886719 144.558594 3.390625 143.6875 L 14.015625 137.5 C 15.238281 136.78125 16 135.472656 16 134.046875 L 16 112.90625 L 28 105.90625 L 40 112.90625 L 40 134.046875 C 40 135.472656 40.761719 136.78125 41.984375 137.5 L 52.609375 143.6875 C 54.113281 144.566406 56 143.476562 56 141.734375 L 56 106.03125 C 56 104.589844 55.230469 103.257812 53.984375 102.53125 L 30.03125 88.578125 C 29.40625 88.210938 28.703125 88.03125 28 88.03125 Z M 156 105.890625 L 168 112.890625 L 168 127.109375 L 156 134.109375 L 144 127.109375 L 144 112.890625 Z M 220 112.03125 L 213.140625 116.03125 L 213.140625 124.015625 L 220 128 L 226.859375 124.015625 L 226.859375 116.03125 Z M 123.25 143.984375 C 122.425781 143.984375 121.59375 144.1875 120.875 144.59375 L 98.375 157.59375 C 96.894531 158.410156 96 160.015625 96 161.6875 L 96 187.65625 C 96 189.328125 96.933594 190.902344 98.375 191.75 L 104.296875 195.125 C 107.136719 196.523438 108.179688 196.53125 109.46875 196.53125 C 113.707031 196.53125 116.125 193.996094 116.125 189.515625 L 116.125 163.859375 C 116.125 163.46875 115.820312 163.1875 115.46875 163.1875 L 112.625 163.1875 C 112.234375 163.1875 111.953125 163.507812 111.953125 163.859375 L 111.953125 189.515625 C 111.953125 191.460938 109.898438 193.453125 106.546875 191.78125 L 100.390625 188.234375 C 100.191406 188.113281 100.046875 187.871094 100.046875 187.640625 L 100.046875 161.671875 C 100.046875 161.441406 100.160156 161.167969 100.390625 161.046875 L 122.890625 148.078125 C 123.128906 147.957031 123.402344 147.957031 123.59375 148.078125 L 146.109375 161.046875 C 146.339844 161.167969 146.453125 161.398438 146.453125 161.671875 L 146.453125 187.640625 C 146.453125 187.914062 146.300781 188.144531 146.109375 188.265625 L 123.59375 201.28125 C 123.394531 201.402344 123.082031 201.402344 122.890625 201.28125 L 117.140625 197.859375 C 116.988281 197.78125 116.746094 197.734375 116.59375 197.8125 C 115 198.75 114.683594 198.871094 113.203125 199.375 C 112.8125 199.496094 112.277344 199.734375 113.40625 200.359375 L 120.875 204.796875 C 121.617188 205.1875 122.433594 205.421875 123.25 205.421875 C 124.105469 205.421875 124.9375 205.191406 125.59375 204.765625 L 148.09375 191.75 C 149.574219 190.933594 150.46875 189.328125 150.46875 187.65625 L 150.46875 161.6875 C 150.46875 160.015625 149.535156 158.449219 148.09375 157.59375 L 125.59375 144.59375 C 124.894531 144.1875 124.074219 143.984375 123.25 143.984375 Z M 158.34375 155.96875 C 156.046875 155.96875 154.03125 157.824219 154.03125 160.28125 C 154.03125 162.65625 155.96875 164.609375 158.34375 164.609375 C 160.71875 164.609375 162.65625 162.65625 162.65625 160.28125 C 162.65625 157.824219 160.679688 155.929688 158.34375 155.96875 Z M 158.296875 156.65625 C 160.328125 156.65625 161.96875 158.257812 161.96875 160.28125 C 161.96875 162.265625 160.320312 163.90625 158.296875 163.953125 C 156.304688 163.953125 154.6875 162.304688 154.6875 160.28125 C 154.6875 158.257812 156.3125 156.65625 158.296875 156.65625 Z M 156.71875 157.828125 L 156.71875 162.6875 L 157.640625 162.6875 L 157.640625 160.75 L 158.5 160.75 C 158.851562 160.75 158.9375 160.898438 159.015625 161.171875 C 159.015625 161.210938 159.164062 162.472656 159.203125 162.703125 L 160.203125 162.703125 C 160.089844 162.472656 160.007812 161.804688 159.96875 161.40625 C 159.855469 160.78125 159.820312 160.351562 159.15625 160.3125 C 159.507812 160.191406 160.09375 160.003906 160.09375 159.109375 C 160.09375 157.820312 158.976562 157.828125 158.390625 157.828125 Z M 157.640625 158.609375 L 158.421875 158.609375 C 158.660156 158.609375 159.125 158.601562 159.125 159.265625 C 159.125 159.539062 159.007812 159.976562 158.375 159.96875 L 157.640625 159.96875 Z M 129.28125 162.578125 C 122.855469 162.578125 119.046875 165.316406 119.046875 169.828125 C 119.046875 174.773438 122.863281 176.09375 129.015625 176.71875 C 136.375 177.453125 136.953125 178.511719 136.953125 179.953125 C 136.953125 182.480469 134.925781 183.53125 130.171875 183.53125 C 124.210938 183.53125 122.902344 182.054688 122.46875 179.09375 C 122.429688 178.78125 122.148438 178.546875 121.796875 178.546875 L 118.875 178.546875 C 118.523438 178.546875 118.21875 178.828125 118.21875 179.21875 C 118.21875 182.996094 120.277344 187.515625 130.125 187.515625 C 137.347656 187.507812 141.4375 184.707031 141.4375 179.796875 C 141.4375 174.933594 138.164062 173.640625 131.234375 172.703125 C 124.226562 171.765625 123.53125 171.296875 123.53125 169.65625 C 123.53125 168.296875 124.105469 166.515625 129.28125 166.515625 C 133.914062 166.515625 135.640625 167.527344 136.34375 170.640625 C 136.421875 170.953125 136.640625 171.140625 136.953125 171.140625 L 139.875 171.140625 C 140.066406 171.140625 140.230469 171.066406 140.34375 170.953125 C 140.464844 170.800781 140.539062 170.644531 140.5 170.453125 C 140.035156 165.078125 136.488281 162.578125 129.28125 162.578125 Z M 129.28125 162.578125 "/>
</g>
</svg>
