<?xml version="1.0" encoding="UTF-8"?>
<svg xmlns="http://www.w3.org/2000/svg" xmlns:xlink="http://www.w3.org/1999/xlink" width="512pt" height="512pt" viewBox="0 0 512 512" version="1.1">
<g id="surface14078016">
<path style=" stroke:none;fill-rule:nonzero;fill:rgb(100%,100%,100%);fill-opacity:1;" d="M 340.8125 96 C 338.300781 96 336 98.011719 336 100.8125 L 336 188.75 L 316.0625 177.125 C 314.816406 176.390625 313.40625 176.03125 312 176.03125 C 310.59375 176.03125 309.183594 176.390625 307.9375 177.125 L 260.03125 205.0625 C 257.535156 206.503906 256 209.167969 256 212.03125 L 256 267.96875 C 256 270.847656 257.535156 273.496094 260.03125 274.9375 L 307.9375 302.875 C 309.183594 303.609375 310.59375 303.96875 312 303.96875 C 313.40625 303.96875 314.816406 303.609375 316.0625 302.875 L 363.96875 274.9375 C 366.464844 273.496094 368 270.832031 368 267.96875 L 368 115.6875 C 368 112.839844 366.480469 110.222656 364.03125 108.78125 L 343.1875 96.65625 C 342.402344 96.207031 341.613281 96 340.8125 96 Z M 184 176.03125 C 182.597656 176.03125 181.195312 176.398438 179.9375 177.125 L 132.03125 205.0625 C 129.535156 206.503906 128 209.167969 128 212.03125 L 128 267.96875 C 128 270.847656 129.535156 273.496094 132.03125 274.9375 L 179.9375 302.875 C 182.449219 304.332031 185.550781 304.332031 188.0625 302.875 L 235.96875 274.9375 C 238.464844 273.496094 240 270.832031 240 267.96875 L 240 212.03125 C 240 209.152344 238.464844 206.503906 235.96875 205.0625 L 188.0625 177.125 C 186.804688 176.398438 185.402344 176.03125 184 176.03125 Z M 440 176.03125 C 438.59375 176.03125 437.183594 176.390625 435.9375 177.125 L 388.03125 205.0625 C 385.535156 206.503906 384 209.167969 384 212.03125 L 384 267.96875 C 384 270.847656 385.535156 273.496094 388.03125 274.9375 L 434.5 303.03125 C 436.996094 304.550781 440.128906 304.566406 442.65625 303.09375 L 465.5 289.8125 C 467.867188 288.453125 467.882812 285.015625 465.5 283.625 L 416 254.46875 L 416 225.75 L 440 211.78125 L 464 225.75 L 464 245.75 C 464 248.421875 466.246094 248.832031 467.75 247.9375 C 473.796875 244.386719 492.03125 233.8125 492.03125 233.8125 C 494.480469 232.386719 496 229.753906 496 226.90625 L 496 212.03125 C 496 209.152344 494.464844 206.503906 491.96875 205.0625 L 444.0625 177.125 C 442.796875 176.390625 441.40625 176.03125 440 176.03125 Z M 56 176.0625 C 54.59375 176.0625 53.183594 176.421875 51.9375 177.15625 L 4.03125 205.0625 C 1.535156 206.519531 0 209.183594 0 212.0625 L 0 283.46875 C 0 286.957031 3.773438 289.117188 6.78125 287.375 L 28.03125 275 C 30.480469 273.558594 32 270.941406 32 268.09375 L 32 225.8125 L 56 211.8125 L 80 225.8125 L 80 268.09375 C 80 270.941406 81.519531 273.558594 83.96875 275 L 105.21875 287.375 C 108.226562 289.136719 112 286.957031 112 283.46875 L 112 212.0625 C 112 209.183594 110.464844 206.519531 107.96875 205.0625 L 60.0625 177.15625 C 58.8125 176.421875 57.40625 176.0625 56 176.0625 Z M 312 211.78125 L 336 225.78125 L 336 254.21875 L 312 268.21875 L 288 254.21875 L 288 225.78125 Z M 440 224.0625 L 426.28125 232.0625 L 426.28125 248.03125 L 440 256 L 453.71875 248.03125 L 453.71875 232.0625 Z M 246.5 287.96875 C 244.855469 287.96875 243.191406 288.371094 241.75 289.1875 L 196.75 315.1875 C 193.789062 316.820312 192 320.03125 192 323.375 L 192 375.3125 C 192 378.65625 193.871094 381.804688 196.75 383.5 L 208.59375 390.25 C 214.273438 393.050781 216.363281 393.0625 218.9375 393.0625 C 227.417969 393.0625 232.25 387.992188 232.25 379.03125 L 232.25 327.71875 C 232.25 326.933594 231.640625 326.375 230.9375 326.375 L 225.25 326.375 C 224.464844 326.375 223.90625 327.015625 223.90625 327.71875 L 223.90625 379.03125 C 223.90625 382.917969 219.796875 386.90625 213.09375 383.5625 L 200.78125 376.46875 C 200.382812 376.230469 200.09375 375.746094 200.09375 375.28125 L 200.09375 323.34375 C 200.09375 322.878906 200.316406 322.332031 200.78125 322.09375 L 245.78125 296.15625 C 246.261719 295.917969 246.804688 295.917969 247.1875 296.15625 L 292.21875 322.09375 C 292.683594 322.332031 292.90625 322.800781 292.90625 323.34375 L 292.90625 375.28125 C 292.90625 375.824219 292.601562 376.292969 292.21875 376.53125 L 247.1875 402.5625 C 246.789062 402.800781 246.164062 402.800781 245.78125 402.5625 L 234.28125 395.71875 C 233.976562 395.558594 233.492188 395.464844 233.1875 395.625 C 230.003906 397.496094 229.367188 397.742188 226.40625 398.75 C 225.621094 398.988281 224.554688 399.472656 226.8125 400.71875 L 241.75 409.59375 C 243.238281 410.378906 244.867188 410.84375 246.5 410.84375 C 248.210938 410.84375 249.875 410.378906 251.1875 409.53125 L 296.1875 383.5 C 299.148438 381.867188 300.9375 378.65625 300.9375 375.3125 L 300.9375 323.375 C 300.9375 320.03125 299.066406 316.898438 296.1875 315.1875 L 251.1875 289.1875 C 249.789062 288.371094 248.144531 287.96875 246.5 287.96875 Z M 316.6875 311.9375 C 312.09375 311.9375 308.0625 315.652344 308.0625 320.5625 C 308.0625 325.316406 311.933594 329.21875 316.6875 329.21875 C 321.441406 329.21875 325.3125 325.316406 325.3125 320.5625 C 325.3125 315.652344 321.359375 311.859375 316.6875 311.9375 Z M 316.59375 313.3125 C 320.65625 313.3125 323.9375 316.515625 323.9375 320.5625 C 323.9375 324.53125 320.640625 327.808594 316.59375 327.90625 C 312.609375 327.90625 309.375 324.609375 309.375 320.5625 C 309.375 316.515625 312.625 313.3125 316.59375 313.3125 Z M 313.4375 315.65625 L 313.4375 325.375 L 315.28125 325.375 L 315.28125 321.5 L 317 321.5 C 317.703125 321.5 317.871094 321.800781 318.03125 322.34375 C 318.03125 322.421875 318.328125 324.941406 318.40625 325.40625 L 320.40625 325.40625 C 320.183594 324.941406 320.015625 323.613281 319.9375 322.8125 C 319.714844 321.566406 319.640625 320.703125 318.3125 320.625 C 319.015625 320.386719 320.1875 320.011719 320.1875 318.21875 C 320.1875 315.644531 317.949219 315.65625 316.78125 315.65625 Z M 315.28125 317.21875 L 316.84375 317.21875 C 317.324219 317.21875 318.25 317.203125 318.25 318.53125 C 318.25 319.074219 318.015625 319.953125 316.75 319.9375 L 315.28125 319.9375 Z M 258.5625 325.15625 C 245.714844 325.15625 238.09375 330.632812 238.09375 339.65625 C 238.09375 349.542969 245.726562 352.191406 258.03125 353.4375 C 272.75 354.910156 273.90625 357.027344 273.90625 359.90625 C 273.90625 364.960938 269.847656 367.0625 260.34375 367.0625 C 248.421875 367.0625 245.800781 364.109375 244.9375 358.1875 C 244.859375 357.5625 244.296875 357.09375 243.59375 357.09375 L 237.75 357.09375 C 237.046875 357.09375 236.4375 357.652344 236.4375 358.4375 C 236.4375 365.988281 240.554688 375.03125 260.25 375.03125 C 274.699219 375.015625 282.875 369.417969 282.875 359.59375 C 282.875 349.867188 276.324219 347.277344 262.46875 345.40625 C 248.453125 343.535156 247.0625 342.59375 247.0625 339.3125 C 247.0625 336.59375 248.210938 333.03125 258.5625 333.03125 C 267.828125 333.03125 271.28125 335.058594 272.6875 341.28125 C 272.847656 341.90625 273.28125 342.28125 273.90625 342.28125 L 279.75 342.28125 C 280.132812 342.28125 280.464844 342.128906 280.6875 341.90625 C 280.925781 341.601562 281.078125 341.289062 281 340.90625 C 280.070312 330.152344 272.976562 325.15625 258.5625 325.15625 Z M 258.5625 325.15625 "/>
</g>
</svg>
