<?xml version="1.0" encoding="UTF-8"?>
<svg xmlns="http://www.w3.org/2000/svg" xmlns:xlink="http://www.w3.org/1999/xlink" width="128pt" height="128pt" viewBox="0 0 128 128" version="1.1">
<g id="surface14078006">
<path style=" stroke:none;fill-rule:nonzero;fill:rgb(100%,100%,100%);fill-opacity:1;" d="M 85.203125 24 C 84.574219 24 84 24.503906 84 25.203125 L 84 47.1875 L 79.015625 44.28125 C 78.703125 44.097656 78.351562 44.007812 78 44.007812 C 77.648438 44.007812 77.296875 44.097656 76.984375 44.28125 L 65.007812 51.265625 C 64.382812 51.625 64 52.292969 64 53.007812 L 64 66.992188 C 64 67.710938 64.382812 68.375 65.007812 68.734375 L 76.984375 75.71875 C 77.296875 75.902344 77.648438 75.992188 78 75.992188 C 78.351562 75.992188 78.703125 75.902344 79.015625 75.71875 L 90.992188 68.734375 C 91.617188 68.375 92 67.707031 92 66.992188 L 92 28.921875 C 92 28.210938 91.621094 27.554688 91.007812 27.195312 L 85.796875 24.164062 C 85.601562 24.050781 85.402344 24 85.203125 24 Z M 46 44.007812 C 45.648438 44.007812 45.296875 44.097656 44.984375 44.28125 L 33.007812 51.265625 C 32.382812 51.625 32 52.292969 32 53.007812 L 32 66.992188 C 32 67.710938 32.382812 68.375 33.007812 68.734375 L 44.984375 75.71875 C 45.613281 76.082031 46.386719 76.082031 47.015625 75.71875 L 58.992188 68.734375 C 59.617188 68.375 60 67.707031 60 66.992188 L 60 53.007812 C 60 52.289062 59.617188 51.625 58.992188 51.265625 L 47.015625 44.28125 C 46.703125 44.097656 46.351562 44.007812 46 44.007812 Z M 110 44.007812 C 109.648438 44.007812 109.296875 44.097656 108.984375 44.28125 L 97.007812 51.265625 C 96.382812 51.625 96 52.292969 96 53.007812 L 96 66.992188 C 96 67.710938 96.382812 68.375 97.007812 68.734375 L 108.625 75.757812 C 109.25 76.136719 110.03125 76.140625 110.664062 75.773438 L 116.375 72.453125 C 116.96875 72.113281 116.972656 71.253906 116.375 70.90625 L 104 63.617188 L 104 56.4375 L 110 52.945312 L 116 56.4375 L 116 61.4375 C 116 62.105469 116.5625 62.207031 116.9375 61.984375 C 118.449219 61.097656 123.007812 58.453125 123.007812 58.453125 C 123.621094 58.097656 124 57.4375 124 56.726562 L 124 53.007812 C 124 52.289062 123.617188 51.625 122.992188 51.265625 L 111.015625 44.28125 C 110.699219 44.097656 110.351562 44.007812 110 44.007812 Z M 14 44.015625 C 13.648438 44.015625 13.296875 44.105469 12.984375 44.289062 L 1.007812 51.265625 C 0.382812 51.628906 0 52.296875 0 53.015625 L 0 70.867188 C 0 71.738281 0.941406 72.28125 1.695312 71.84375 L 7.007812 68.75 C 7.621094 68.390625 8 67.734375 8 67.023438 L 8 56.453125 L 14 52.953125 L 20 56.453125 L 20 67.023438 C 20 67.734375 20.378906 68.390625 20.992188 68.75 L 26.304688 71.84375 C 27.058594 72.285156 28 71.738281 28 70.867188 L 28 53.015625 C 28 52.296875 27.617188 51.628906 26.992188 51.265625 L 15.015625 44.289062 C 14.703125 44.105469 14.351562 44.015625 14 44.015625 Z M 78 52.945312 L 84 56.445312 L 84 63.554688 L 78 67.054688 L 72 63.554688 L 72 56.445312 Z M 110 56.015625 L 106.570312 58.015625 L 106.570312 62.007812 L 110 64 L 113.429688 62.007812 L 113.429688 58.015625 Z M 61.625 71.992188 C 61.214844 71.992188 60.796875 72.09375 60.4375 72.296875 L 49.1875 78.796875 C 48.449219 79.203125 48 80.007812 48 80.84375 L 48 93.828125 C 48 94.664062 48.46875 95.449219 49.1875 95.875 L 52.148438 97.5625 C 53.570312 98.261719 54.089844 98.265625 54.734375 98.265625 C 56.855469 98.265625 58.0625 96.996094 58.0625 94.757812 L 58.0625 81.929688 C 58.0625 81.734375 57.910156 81.59375 57.734375 81.59375 L 56.3125 81.59375 C 56.117188 81.59375 55.976562 81.753906 55.976562 81.929688 L 55.976562 94.757812 C 55.976562 95.730469 54.949219 96.726562 53.273438 95.890625 L 50.195312 94.117188 C 50.09375 94.058594 50.023438 93.9375 50.023438 93.820312 L 50.023438 80.835938 C 50.023438 80.71875 50.078125 80.582031 50.195312 80.523438 L 61.445312 74.039062 C 61.566406 73.980469 61.699219 73.980469 61.796875 74.039062 L 73.054688 80.523438 C 73.171875 80.582031 73.226562 80.699219 73.226562 80.835938 L 73.226562 93.820312 C 73.226562 93.957031 73.152344 94.074219 73.054688 94.132812 L 61.796875 100.640625 C 61.695312 100.699219 61.542969 100.699219 61.445312 100.640625 L 58.570312 98.929688 C 58.496094 98.890625 58.371094 98.867188 58.296875 98.90625 C 57.5 99.375 57.339844 99.433594 56.601562 99.6875 C 56.40625 99.746094 56.140625 99.867188 56.703125 100.179688 L 60.4375 102.398438 C 60.808594 102.59375 61.21875 102.710938 61.625 102.710938 C 62.054688 102.710938 62.46875 102.59375 62.796875 102.382812 L 74.046875 95.875 C 74.785156 95.46875 75.234375 94.664062 75.234375 93.828125 L 75.234375 80.84375 C 75.234375 80.007812 74.765625 79.226562 74.046875 78.796875 L 62.796875 72.296875 C 62.445312 72.09375 62.035156 71.992188 61.625 71.992188 Z M 79.171875 77.984375 C 78.023438 77.984375 77.015625 78.914062 77.015625 80.140625 C 77.015625 81.328125 77.984375 82.304688 79.171875 82.304688 C 80.359375 82.304688 81.328125 81.328125 81.328125 80.140625 C 81.328125 78.914062 80.339844 77.964844 79.171875 77.984375 Z M 79.148438 78.328125 C 80.164062 78.328125 80.984375 79.128906 80.984375 80.140625 C 80.984375 81.132812 80.160156 81.953125 79.148438 81.976562 C 78.152344 81.976562 77.34375 81.152344 77.34375 80.140625 C 77.34375 79.128906 78.15625 78.328125 79.148438 78.328125 Z M 78.359375 78.914062 L 78.359375 81.34375 L 78.820312 81.34375 L 78.820312 80.375 L 79.25 80.375 C 79.425781 80.375 79.46875 80.449219 79.507812 80.585938 C 79.507812 80.605469 79.582031 81.234375 79.601562 81.351562 L 80.101562 81.351562 C 80.046875 81.234375 80.003906 80.902344 79.984375 80.703125 C 79.929688 80.390625 79.910156 80.175781 79.578125 80.15625 C 79.753906 80.097656 80.046875 80.003906 80.046875 79.554688 C 80.046875 78.910156 79.488281 78.914062 79.195312 78.914062 Z M 78.820312 79.304688 L 79.210938 79.304688 C 79.332031 79.304688 79.5625 79.300781 79.5625 79.632812 C 79.5625 79.769531 79.503906 79.988281 79.1875 79.984375 L 78.820312 79.984375 Z M 64.640625 81.289062 C 61.429688 81.289062 59.523438 82.65625 59.523438 84.914062 C 59.523438 87.386719 61.433594 88.046875 64.507812 88.359375 C 68.1875 88.726562 68.476562 89.257812 68.476562 89.976562 C 68.476562 91.242188 67.460938 91.765625 65.085938 91.765625 C 62.105469 91.765625 61.449219 91.027344 61.234375 89.546875 C 61.214844 89.390625 61.074219 89.273438 60.898438 89.273438 L 59.4375 89.273438 C 59.261719 89.273438 59.109375 89.414062 59.109375 89.609375 C 59.109375 91.496094 60.136719 93.757812 65.0625 93.757812 C 68.675781 93.753906 70.71875 92.355469 70.71875 89.898438 C 70.71875 87.464844 69.082031 86.820312 65.617188 86.351562 C 62.113281 85.882812 61.765625 85.648438 61.765625 84.828125 C 61.765625 84.148438 62.050781 83.257812 64.640625 83.257812 C 66.957031 83.257812 67.820312 83.765625 68.171875 85.320312 C 68.210938 85.476562 68.320312 85.570312 68.476562 85.570312 L 69.9375 85.570312 C 70.035156 85.570312 70.117188 85.53125 70.171875 85.476562 C 70.230469 85.402344 70.269531 85.324219 70.25 85.226562 C 70.019531 82.539062 68.246094 81.289062 64.640625 81.289062 Z M 64.640625 81.289062 "/>
</g>
</svg>
